<svg xmlns="http://www.w3.org/2000/svg" width="275" height="200" viewBox="0 0 275 200">
    <style>
        .text { font-family: sans-serif; font-size: 14px; fill: #111; }
        .bg { fill: white; }
    </style>

    <g transform="translate(15, 15)">
        <g>
            <rect x="0" y="0" width="120" height="20" class="bg"/>
            <svg x="0" y="0" width="20" height="20" viewBox="0 0 24 24">
                <path d="M10 4H4c-1.1 0-2 .9-2 2v12c0 1.1.9 2 2 2h16c1.1 0 2-.9 2-2V8c0-1.1-.9-2-2-2h-8l-2-2z"
                      fill="none"
                      stroke="#6C757D" stroke-width="2" stroke-linejoin="round"/>
                <circle cx="8" cy="13" r="2.5" fill="none" stroke="#6C757D" stroke-width="1.5"/>
            </svg>
            <text x="30" y="15" class="text">service</text>
        </g>

        <g transform="translate(20, 30)">
            <g>
                <rect x="0" y="0" width="100" height="20" class="bg"/>
                <svg x="0" y="0" width="20" height="20" viewBox="0 0 24 24">
                    <path d="M10 4H4c-1.1 0-2 .9-2 2v12c0 1.1.9 2 2 2h16c1.1 0 2-.9 2-2V8c0-1.1-.9-2-2-2h-8l-2-2z"
                          fill="none"
                          stroke="#6C757D" stroke-width="2" stroke-linejoin="round"/>
                    <circle cx="8" cy="13" r="2.5" fill="none" stroke="#6C757D" stroke-width="1.5"/>
                </svg>
                <text x="30" y="15" class="text">ldap</text>

                <g transform="translate(20, 0)">
                    <g transform="translate(0, 25)">
                        <rect x="0" y="0" width="210" height="20" class="bg"/>
                        <svg width="20" height="20" viewBox="0 0 16 16">
                            <g fill="none" fill-rule="evenodd">
                                <path fill="#40B6E0" fill-opacity=".6"
                                      d="M15,8 C15,11.866 11.866,15 8,15 C4.134,15 1,11.866 1,8 C1,4.134 4.134,1 8,1 C11.866,1 15,4.134 15,8"/>
                                <path fill="#231F20" fill-opacity=".7"
                                      d="M5,4.28253174 C4.53,4.74153174 4.028,4.978 3.1,5 C2.061,5.022 1,4.2794 1,3.0004 C1,1.7124 1.971,1 3.1,1 C3.94833171,1 4.54833171,1.18475342 4.9,1.55426025 L5.5162,0.836730957 C4.8293999,0.270175195 4.28826904,0.0004 3.0982,0.0004 C1.3402,0.0004 0.0002,1.3584 0.0002,3.0004 C0.0002,4.6824 1.3642,6.0004 3.0022,6.0004 C4.29284668,6.0004 5.0232,5.5934 5.6162,4.9814 C5.2054,4.51548783 5,4.28253174 5,4.28253174 Z"
                                      transform="translate(5 5)"/>
                            </g>
                        </svg>
                        <text x="30" y="15" class="text">LdapSynchronizationService</text>
                    </g>
                </g>
            </g>

            <g transform="translate(0, 25)">
                <g transform="translate(0, 25)">
                    <rect x="0" y="0" width="210" height="20" class="bg"/>
                    <svg width="20" height="20" viewBox="0 0 16 16">
                        <g fill="none" fill-rule="evenodd">
                            <path fill="#40B6E0" fill-opacity=".6"
                                  d="M15,8 C15,11.866 11.866,15 8,15 C4.134,15 1,11.866 1,8 C1,4.134 4.134,1 8,1 C11.866,1 15,4.134 15,8"/>
                            <path fill="#231F20" fill-opacity=".7"
                                  d="M5,4.28253174 C4.53,4.74153174 4.028,4.978 3.1,5 C2.061,5.022 1,4.2794 1,3.0004 C1,1.7124 1.971,1 3.1,1 C3.94833171,1 4.54833171,1.18475342 4.9,1.55426025 L5.5162,0.836730957 C4.8293999,0.270175195 4.28826904,0.0004 3.0982,0.0004 C1.3402,0.0004 0.0002,1.3584 0.0002,3.0004 C0.0002,4.6824 1.3642,6.0004 3.0022,6.0004 C4.29284668,6.0004 5.0232,5.5934 5.6162,4.9814 C5.2054,4.51548783 5,4.28253174 5,4.28253174 Z"
                                  transform="translate(5 5)"/>
                        </g>
                    </svg>
                    <text x="30" y="15" class="text">DepartmentService</text>
                </g>
                <g transform="translate(0, 50)">
                    <rect x="0" y="0" width="180" height="20" class="bg"/>
                    <svg width="20" height="20" viewBox="0 0 16 16">
                        <g fill="none" fill-rule="evenodd">
                            <path fill="#40B6E0" fill-opacity=".6"
                                  d="M15,8 C15,11.866 11.866,15 8,15 C4.134,15 1,11.866 1,8 C1,4.134 4.134,1 8,1 C11.866,1 15,4.134 15,8"/>
                            <path fill="#231F20" fill-opacity=".7"
                                  d="M5,4.28253174 C4.53,4.74153174 4.028,4.978 3.1,5 C2.061,5.022 1,4.2794 1,3.0004 C1,1.7124 1.971,1 3.1,1 C3.94833171,1 4.54833171,1.18475342 4.9,1.55426025 L5.5162,0.836730957 C4.8293999,0.270175195 4.28826904,0.0004 3.0982,0.0004 C1.3402,0.0004 0.0002,1.3584 0.0002,3.0004 C0.0002,4.6824 1.3642,6.0004 3.0022,6.0004 C4.29284668,6.0004 5.0232,5.5934 5.6162,4.9814 C5.2054,4.51548783 5,4.28253174 5,4.28253174 Z"
                                  transform="translate(5 5)"/>
                        </g>
                    </svg>
                    <text x="30" y="15" class="text">PersonService</text>
                </g>
                <g transform="translate(0, 75)">
                    <rect x="0" y="0" width="180" height="20" class="bg"/>
                    <svg width="20" height="20" viewBox="0 0 16 16">
                        <g fill="none" fill-rule="evenodd">
                            <path fill="#40B6E0" fill-opacity=".6"
                                  d="M15,8 C15,11.866 11.866,15 8,15 C4.134,15 1,11.866 1,8 C1,4.134 4.134,1 8,1 C11.866,1 15,4.134 15,8"/>
                            <path fill="#231F20" fill-opacity=".7"
                                  d="M5,4.28253174 C4.53,4.74153174 4.028,4.978 3.1,5 C2.061,5.022 1,4.2794 1,3.0004 C1,1.7124 1.971,1 3.1,1 C3.94833171,1 4.54833171,1.18475342 4.9,1.55426025 L5.5162,0.836730957 C4.8293999,0.270175195 4.28826904,0.0004 3.0982,0.0004 C1.3402,0.0004 0.0002,1.3584 0.0002,3.0004 C0.0002,4.6824 1.3642,6.0004 3.0022,6.0004 C4.29284668,6.0004 5.0232,5.5934 5.6162,4.9814 C5.2054,4.51548783 5,4.28253174 5,4.28253174 Z"
                                  transform="translate(5 5)"/>
                        </g>
                    </svg>
                    <text x="30" y="15" class="text">PersonSkillService</text>
                </g>
                <g transform="translate(0, 100)">
                    <rect x="0" y="0" width="180" height="20" class="bg"/>
                    <svg width="20" height="20" viewBox="0 0 16 16">
                        <g fill="none" fill-rule="evenodd">
                            <path fill="#40B6E0" fill-opacity=".6"
                                  d="M15,8 C15,11.866 11.866,15 8,15 C4.134,15 1,11.866 1,8 C1,4.134 4.134,1 8,1 C11.866,1 15,4.134 15,8"/>
                            <path fill="#231F20" fill-opacity=".7"
                                  d="M5,4.28253174 C4.53,4.74153174 4.028,4.978 3.1,5 C2.061,5.022 1,4.2794 1,3.0004 C1,1.7124 1.971,1 3.1,1 C3.94833171,1 4.54833171,1.18475342 4.9,1.55426025 L5.5162,0.836730957 C4.8293999,0.270175195 4.28826904,0.0004 3.0982,0.0004 C1.3402,0.0004 0.0002,1.3584 0.0002,3.0004 C0.0002,4.6824 1.3642,6.0004 3.0022,6.0004 C4.29284668,6.0004 5.0232,5.5934 5.6162,4.9814 C5.2054,4.51548783 5,4.28253174 5,4.28253174 Z"
                                  transform="translate(5 5)"/>
                        </g>
                    </svg>
                    <text x="30" y="15" class="text">SkillService</text>
                </g>
            </g>
        </g>

    </g>
</svg>